<mxfile host="app.diagrams.net" agent="Mozilla/5.0 (Windows NT 10.0; Win64; x64) AppleWebKit/537.36 (KHTML, like Gecko) Chrome/127.0.0.0 Safari/537.36" version="24.7.8">
  <diagram name="Página-1" id="5LOUQrqWnjLTlpzPpdvJ">
    <mxGraphModel dx="345" dy="241" grid="1" gridSize="10" guides="1" tooltips="1" connect="1" arrows="1" fold="1" page="1" pageScale="1" pageWidth="827" pageHeight="1169" math="0" shadow="0">
      <root>
        <mxCell id="0" />
        <mxCell id="1" parent="0" />
        <mxCell id="RQqY8TRceIRSKR4_ua21-5" value="&lt;span style=&quot;font-weight: 700;&quot;&gt;IDBSuper&lt;/span&gt;" style="swimlane;fontStyle=0;align=center;verticalAlign=top;childLayout=stackLayout;horizontal=1;startSize=30;horizontalStack=0;resizeParent=1;resizeParentMax=0;resizeLast=0;collapsible=0;marginBottom=0;html=1;whiteSpace=wrap;" vertex="1" parent="1">
          <mxGeometry x="240" y="130" width="140" height="160" as="geometry" />
        </mxCell>
        <mxCell id="RQqY8TRceIRSKR4_ua21-8" value="- String: nome&lt;div&gt;- int: kI&lt;/div&gt;&lt;div&gt;- int: tecnicas&lt;/div&gt;&lt;div&gt;- int: velocidade&lt;/div&gt;&lt;div&gt;- int: tranformações&lt;/div&gt;" style="text;html=1;strokeColor=none;fillColor=none;align=left;verticalAlign=middle;spacingLeft=4;spacingRight=4;overflow=hidden;rotatable=0;points=[[0,0.5],[1,0.5]];portConstraint=eastwest;fontColor=#808080;whiteSpace=wrap;" vertex="1" parent="RQqY8TRceIRSKR4_ua21-5">
          <mxGeometry y="30" width="140" height="80" as="geometry" />
        </mxCell>
        <mxCell id="RQqY8TRceIRSKR4_ua21-10" value="" style="line;strokeWidth=1;fillColor=none;align=left;verticalAlign=middle;spacingTop=-1;spacingLeft=3;spacingRight=3;rotatable=0;labelPosition=right;points=[];portConstraint=eastwest;" vertex="1" parent="RQqY8TRceIRSKR4_ua21-5">
          <mxGeometry y="110" width="140" height="50" as="geometry" />
        </mxCell>
      </root>
    </mxGraphModel>
  </diagram>
</mxfile>
